<?xml version="1.0" ?>

<!DOCTYPE svg  PUBLIC '-//W3C//DTD SVG 1.1//EN'  'http://www.w3.org/Graphics/SVG/1.1/DTD/svg11.dtd'>

<!-- Uploaded to: SVG Repo, www.svgrepo.com, Generator: SVG Repo Mixer Tools -->
<svg width="800px" height="800px" viewBox="0 0 512 512" enable-background="new 0 0 512 512" id="Layer_1" version="1.1" xml:space="preserve"
    xmlns="http://www.w3.org/2000/svg"
    xmlns:xlink="http://www.w3.org/1999/xlink">

    <g>

        <g>

            <path d="M421.38,459.49H90.62c-5.523,0-10-4.478-10-10V62.51c0-5.522,4.477-10,10-10h330.76    c5.523,0,10,4.478,10,10v386.98C431.38,455.013,426.903,459.49,421.38,459.49z M100.62,439.49h310.76V72.51H100.62V439.49z" fill="#444B54"/>

        </g>

        <g>

            <path d="M421.38,455.596H90.62c-5.523,0-10-4.478-10-10v-89.829c0-5.522,4.477-10,10-10h330.76    c5.523,0,10,4.478,10,10v89.829C431.38,451.118,426.903,455.596,421.38,455.596z M100.62,435.596h310.76v-69.829H100.62V435.596z" fill="#444B54"/>

        </g>

        <g>

            <path d="M265.743,113.929H90.62c-5.523,0-10-4.478-10-10V62.51c0-5.522,4.477-10,10-10h175.123    c5.523,0,10,4.478,10,10v41.419C275.743,109.451,271.266,113.929,265.743,113.929z M100.62,93.929h155.123V72.51H100.62V93.929z" fill="#444B54"/>

        </g>

        <g>

            <path d="M421.38,366.514H265.743c-5.523,0-10-4.478-10-10V63.783c0-5.522,4.477-10,10-10H421.38    c5.523,0,10,4.478,10,10v292.73C431.38,362.036,426.903,366.514,421.38,366.514z M275.743,346.514H411.38V73.783H275.743V346.514z    " fill="#444B54"/>

        </g>

        <g>

            <path d="M421.38,230.669H265.743c-5.523,0-10-4.478-10-10v-68.395c0-5.522,4.477-10,10-10H421.38    c5.523,0,10,4.478,10,10v68.395C431.38,226.191,426.903,230.669,421.38,230.669z M275.743,210.669H411.38v-48.395H275.743V210.669    z" fill="#444B54"/>

        </g>

        <g>

            <path d="M421.38,299.063H265.743c-5.523,0-10-4.478-10-10v-68.395c0-5.522,4.477-10,10-10H421.38    c5.523,0,10,4.478,10,10v68.395C431.38,294.586,426.903,299.063,421.38,299.063z M275.743,279.063H411.38v-48.395H275.743V279.063    z" fill="#444B54"/>

        </g>

        <g>

            <path d="M228.851,165.675c-2.559,0-5.119-0.977-7.071-2.929l-25.5-25.5c-3.905-3.905-3.905-10.237,0-14.143    c3.905-3.904,10.237-3.904,14.143,0l25.5,25.5c3.905,3.905,3.905,10.237,0,14.143C233.969,164.698,231.41,165.675,228.851,165.675    z" fill="#444B54"/>

        </g>

        <g>

            <path d="M226.351,208.175c-2.559,0-5.119-0.977-7.071-2.929l-63-63c-3.905-3.905-3.905-10.237,0-14.143    c3.905-3.904,10.237-3.904,14.143,0l63,63c3.905,3.905,3.905,10.237,0,14.143C231.469,207.198,228.91,208.175,226.351,208.175z" fill="#444B54"/>

        </g>

        <g>

            <path d="M351.351,113.929h-22c-5.523,0-10-4.478-10-10s4.477-10,10-10h22c5.523,0,10,4.478,10,10    S356.874,113.929,351.351,113.929z" fill="#444B54"/>

        </g>

        <g>

            <path d="M351.351,196.472h-22c-5.523,0-10-4.478-10-10s4.477-10,10-10h22c5.523,0,10,4.478,10,10    S356.874,196.472,351.351,196.472z" fill="#444B54"/>

        </g>

        <g>

            <path d="M351.351,264.866h-22c-5.523,0-10-4.478-10-10s4.477-10,10-10h22c5.523,0,10,4.478,10,10    S356.874,264.866,351.351,264.866z" fill="#444B54"/>

        </g>

        <g>

            <path d="M351.351,333.043h-22c-5.523,0-10-4.478-10-10s4.477-10,10-10h22c5.523,0,10,4.478,10,10    S356.874,333.043,351.351,333.043z" fill="#444B54"/>

        </g>

        <g>

            <path d="M265.743,415.175h-22c-5.523,0-10-4.478-10-10s4.477-10,10-10h22c5.523,0,10,4.478,10,10    S271.266,415.175,265.743,415.175z" fill="#444B54"/>

        </g>

        <g>

            <rect fill="#55939C" height="386.98" width="330.76" x="90.62" y="62.51"/>

            <path d="M421.38,459.49H90.62c-5.523,0-10-4.478-10-10V62.51c0-5.522,4.477-10,10-10h330.76    c5.523,0,10,4.478,10,10v386.98C431.38,455.013,426.903,459.49,421.38,459.49z M100.62,439.49h310.76V72.51H100.62V439.49z" fill="#444B54"/>

        </g>

        <g>

            <rect fill="#DCB892" height="89.829" width="330.76" x="90.62" y="355.767"/>

            <path d="M421.38,455.596H90.62c-5.523,0-10-4.478-10-10v-89.829c0-5.522,4.477-10,10-10h330.76    c5.523,0,10,4.478,10,10v89.829C431.38,451.118,426.903,455.596,421.38,455.596z M100.62,435.596h310.76v-69.829H100.62V435.596z" fill="#444B54"/>

        </g>

        <g>

            <rect fill="#F16259" height="41.419" width="175.123" x="90.62" y="62.51"/>

            <path d="M265.743,113.929H90.62c-5.523,0-10-4.478-10-10V62.51c0-5.522,4.477-10,10-10h175.123    c5.523,0,10,4.478,10,10v41.419C275.743,109.451,271.266,113.929,265.743,113.929z M100.62,93.929h155.123V72.51H100.62V93.929z" fill="#444B54"/>

        </g>

        <g>

            <rect fill="#8F8F99" height="292.73" width="155.637" x="265.743" y="63.783"/>

            <path d="M421.38,366.514H265.743c-5.523,0-10-4.478-10-10V63.783c0-5.522,4.477-10,10-10H421.38    c5.523,0,10,4.478,10,10v292.73C431.38,362.036,426.903,366.514,421.38,366.514z M275.743,346.514H411.38V73.783H275.743V346.514z    " fill="#444B54"/>

        </g>

        <g>

            <rect fill="#F16259" height="68.395" width="155.637" x="265.743" y="152.274"/>

            <path d="M421.38,230.669H265.743c-5.523,0-10-4.478-10-10v-68.395c0-5.522,4.477-10,10-10H421.38    c5.523,0,10,4.478,10,10v68.395C431.38,226.191,426.903,230.669,421.38,230.669z M275.743,210.669H411.38v-48.395H275.743V210.669    z" fill="#444B54"/>

        </g>

        <g>

            <rect fill="#F16259" height="68.395" width="155.637" x="265.743" y="220.669"/>

            <path d="M421.38,299.063H265.743c-5.523,0-10-4.478-10-10v-68.395c0-5.522,4.477-10,10-10H421.38    c5.523,0,10,4.478,10,10v68.395C431.38,294.586,426.903,299.063,421.38,299.063z M275.743,279.063H411.38v-48.395H275.743V279.063    z" fill="#444B54"/>

        </g>

        <g>

            <path d="M228.851,165.675c-2.559,0-5.119-0.977-7.071-2.929l-25.5-25.5c-3.905-3.905-3.905-10.237,0-14.143    c3.905-3.904,10.237-3.904,14.143,0l25.5,25.5c3.905,3.905,3.905,10.237,0,14.143C233.969,164.698,231.41,165.675,228.851,165.675    z" fill="#444B54"/>

        </g>

        <g>

            <path d="M226.351,208.175c-2.559,0-5.119-0.977-7.071-2.929l-63-63c-3.905-3.905-3.905-10.237,0-14.143    c3.905-3.904,10.237-3.904,14.143,0l63,63c3.905,3.905,3.905,10.237,0,14.143C231.469,207.198,228.91,208.175,226.351,208.175z" fill="#444B54"/>

        </g>

        <g>

            <path d="M351.351,113.929h-22c-5.523,0-10-4.478-10-10s4.477-10,10-10h22c5.523,0,10,4.478,10,10    S356.874,113.929,351.351,113.929z" fill="#444B54"/>

        </g>

        <g>

            <path d="M351.351,196.472h-22c-5.523,0-10-4.478-10-10s4.477-10,10-10h22c5.523,0,10,4.478,10,10    S356.874,196.472,351.351,196.472z" fill="#444B54"/>

        </g>

        <g>

            <path d="M351.351,264.866h-22c-5.523,0-10-4.478-10-10s4.477-10,10-10h22c5.523,0,10,4.478,10,10    S356.874,264.866,351.351,264.866z" fill="#444B54"/>

        </g>

        <g>

            <path d="M351.351,333.043h-22c-5.523,0-10-4.478-10-10s4.477-10,10-10h22c5.523,0,10,4.478,10,10    S356.874,333.043,351.351,333.043z" fill="#444B54"/>

        </g>

        <g>

            <path d="M265.743,415.175h-22c-5.523,0-10-4.478-10-10s4.477-10,10-10h22c5.523,0,10,4.478,10,10    S271.266,415.175,265.743,415.175z" fill="#444B54"/>

        </g>

    </g>

</svg>